<svg xmlns="http://www.w3.org/2000/svg" height="100%" width="100%" viewBox="0,0,2048,2048" focusable="false">
  <path type="path" d="M563 410h163q16 45 55 73 40 29 89 29h308q50 0 89-29 39-28 55-73h163q21 0 36 15 15 15 15 36v476l102 204v-680q0-64-45-109-45-45-108-45h-163q-16-45-55-73-40-29-89-29h-308q-50 0-89 29-39 28-55 73h-163q-64 0-108 45-45 45-45 109v1229q0 64 45 108 45 45 108 45h265q-18-51 0-102h-265q-21 0-36-15-15-15-15-36v-1229q0-21 15-36 15-15 36-15z m307-103h308q21 0 36 15 15 15 15 36 0 21-15 37-15 15-36 15h-308q-21 0-36-15-15-15-15-37 0-21 15-36 15-15 36-15z m512 615q32 0 46 28l410 819q9 19 3 39-7 20-26 30-19 9-39 3-20-7-30-26l-139-279h-449l-139 279q-9 19-30 26-20 7-39-3-19-9-26-30-7-20 3-39l410-819q14-28 45-28z m0 165l-173 347h347l-174-347z" fill="none"></path>
  <path type="path" d="M1178 461h-308q-42 0-72-30-30-30-30-73h-205q-42 0-72 30-30 30-30 73v1229q0 42 30 72 30 30 72 30h256q0-36 16-69l410-819q20-39 57-62 37-23 80-23 44 0 81 23 37 23 57 62l67 135v-578q0-42-30-73-30-30-72-30h-205q0 42-30 73-30 30-72 30z" fill="none"></path>
  <path type="path" d="M1428 950q-14-28-46-28-32 0-45 28l-410 819q-9 19-3 39 7 20 26 30 19 9 39 3 20-7 30-26l139-279h449l139 279q9 19 30 26 20 7 39-3 19-9 26-30 7-20-3-39l-410-819z m128 484h-347l173-347 174 347z" fill="currentColor"></path>
  <path type="path" d="M726 410h-163q-21 0-36 15-15 15-15 36v1229q0 21 15 36 15 15 36 15h265q-18 51 0 102h-265q-64 0-108-45-45-45-45-108v-1229q0-64 45-109 45-45 108-45h163q16-45 55-73 40-29 89-29h308q50 0 89 29 39 28 55 73h163q64 0 108 45 45 45 45 109v680l-102-204v-476q0-21-15-36-15-15-36-15h-163q-16 45-55 73-40 29-89 29h-308q-50 0-89-29-39-28-55-73z m93-52q0 21 15 37 15 15 36 15h308q21 0 36-15 15-15 15-37 0-21-15-36-15-15-36-15h-308q-21 0-36 15-15 15-15 36z" fill="currentColor"></path>
</svg>