<svg xmlns="http://www.w3.org/2000/svg" height="100%" width="100%" viewBox="0,0,2048,2048" focusable="false">
  <path type="path" d="M1075 717q-64 0-108 45-45 45-45 108v820q0 64 45 108 45 45 108 45h512q64 0 109-45 45-45 45-108v-820q0-64-45-108-45-45-109-45h-512z m-51 153q0-21 15-36 15-15 36-15h512q21 0 36 15 15 15 15 36v820q0 21-15 36-15 15-36 15h-512q-21 0-36-15-15-15-15-36v-820z m-563-460h162q16 45 55 73 40 29 90 29h307q50 0 90-29 39-28 55-73h162q21 0 37 15 15 15 15 36v102q0 21 15 36 15 15 36 15 21 0 36-15 15-15 15-36v-102q0-64-45-109-45-45-109-45h-162q-16-45-55-73-40-29-90-29h-307q-50 0-90 29-39 28-55 73h-162q-64 0-109 45-45 45-45 109v1229q0 64 45 108 45 45 109 45h307q21 0 36-15 15-15 15-36 0-21-15-36-15-15-36-15h-307q-21 0-36-15-15-15-15-36v-1229q0-21 15-36 15-15 36-15z m307 0q-21 0-36-15-15-15-15-37 0-21 15-36 15-15 36-15h307q21 0 36 15 15 15 15 36 0 21-15 37-15 15-36 15h-307z" fill="none"></path>
  <path type="path" d="M768 461h307q42 0 73-30 30-30 30-73 0-42-30-72-30-30-73-30h-307q-42 0-72 30-30 30-30 72 0 42 30 73 30 30 72 30z m205 409v820q0 42 30 72 30 30 72 30h512q42 0 73-30 30-30 30-72v-820q0-42-30-72-30-30-73-30h-512q-42 0-72 30-30 30-30 72z" fill="none"></path>
  <path type="path" d="M1075 717q-64 0-108 45-45 45-45 108v820q0 64 45 108 45 45 108 45h512q64 0 109-45 45-45 45-108v-820q0-64-45-108-45-45-109-45h-512z m-51 153q0-21 15-36 15-15 36-15h512q21 0 36 15 15 15 15 36v820q0 21-15 36-15 15-36 15h-512q-21 0-36-15-15-15-15-36v-820z" fill="currentColor"></path>
  <path type="path" d="M358 1690v-1229q0-42 30-73 30-30 73-30h51q29 0 65 16 21 10 63 36 40 24 60 33 33 16 61 18 4 0 7 0h307q4 0 7 0 27-2 61-18 20-9 60-33 42-26 64-36 36-16 64-16h51q42 0 73 30 30 30 30 73v153h-410q-106 0-181 75-75 75-75 181v922h-358q-42 0-73-30-30-30-30-72z" fill="none"></path>
  <path type="path" d="M461 410h162q16 45 55 73 40 29 90 29h307q50 0 90-29 39-28 55-73h162q21 0 37 15 15 15 15 36v102q0 21 15 36 15 15 36 15 21 0 36-15 15-15 15-36v-102q0-64-45-109-45-45-109-45h-162q-16-45-55-73-40-29-90-29h-307q-50 0-90 29-39 28-55 73h-162q-64 0-109 45-45 45-45 109v1229q0 64 45 108 45 45 109 45h307q21 0 36-15 15-15 15-36 0-21-15-36-15-15-36-15h-307q-21 0-36-15-15-15-15-36v-1229q0-21 15-36 15-15 36-15z m307 0q-21 0-36-15-15-15-15-37 0-21 15-36 15-15 36-15h307q21 0 36 15 15 15 15 36 0 21-15 37-15 15-36 15h-307z" fill="currentColor"></path>
</svg>