<svg xmlns="http://www.w3.org/2000/svg" height="100%" width="100%" viewBox="0,0,2048,2048" focusable="false" fill="currentColor">
  <path type="path" d="M309 265q14-28 40-44 26-16 57-16 29 0 53 14 21 12 31 31 9 17 6 33-3 18-23 32-40 32-80 46-114 38-162 118-16 27-22 56-2 10-4 18 0 3 0 7l0 2 0 1 0 0 0 0q26 0 51 0h-51q0 21 15 36 15 15 36 15h307q21 0 36-15 15-15 15-36 0-21-15-36-15-15-36-15h-229q31-34 92-54 57-19 111-63 48-39 59-93 10-51-15-99-24-45-70-72-48-28-105-29-60 0-111 32-51 32-78 85l-7 14q-9 19-3 39 7 20 26 30 19 9 39 3 20-7 30-26l7-14z m561 42q-21 0-36 15-15 15-15 36 0 21 15 37 15 15 36 15h820q21 0 36-15 15-15 15-37 0-21-15-36-15-15-36-15h-820z m0 1229q-21 0-36 15-15 15-15 36 0 21 15 36 15 15 36 15h820q21 0 36-15 15-15 15-36 0-21-15-36-15-15-36-15h-820z m-563-51q0-21 15-36 15-15 36-15h103q21 0 36 15 15 15 15 36 0 21-15 36-15 15-36 15-21 0-36 15-15 15-15 36 0 21 15 36 15 15 36 15 21 0 36 15 15 15 15 37 0 21-15 36-15 15-36 15h-103q-21 0-36-15-15-15-15-36 0-21-15-37-15-15-36-15-21 0-36 15-15 15-15 37 0 64 45 108 45 45 108 45h103q64 0 108-45 45-45 45-108 0-59-39-103 39-44 39-102 0-64-45-109-45-45-108-45h-103q-64 0-108 45-45 45-45 109 0 21 15 36 15 15 36 15 21 0 36-15 15-15 15-36z m563-666q-21 0-36 15-15 15-15 36 0 21 15 37 15 15 36 15h717q21 0 36-15 15-15 15-37 0-21-15-36-15-15-36-15h-717z m-51 256q0-21 15-36 15-15 36-15h512q21 0 37 15 15 15 15 36 0 21-15 36-15 15-37 15h-512q-21 0-36-15-15-15-15-36z m-220-15q15-15 15-36 0-21-15-36-15-15-36-15-21 0-36 15l-66 66 0-286q0-21-15-36-15-15-36-15-21 0-37 15-15 15-15 36l0 286-66-66q-15-15-36-15-21 0-36 15-15 15-15 36 0 21 15 36l153 154q15 15 37 15 21 0 36-15l153-154z"></path>
  <path type="path" d="M358 1434q-21 0-36 15-15 15-15 36 0 21-15 36-15 15-36 15-21 0-36-15-15-15-15-36 0-64 45-109 45-45 108-45h103q64 0 108 45 45 45 45 109 0 59-39 102 39 44 39 103 0 64-45 108-45 45-108 45h-103q-64 0-108-45-45-45-45-108 0-21 15-37 15-15 36-15 21 0 36 15 15 15 15 37 0 21 15 36 15 15 36 15h103q21 0 36-15 15-15 15-36 0-21-15-37-15-15-36-15-21 0-36-15-15-15-15-36 0-21 15-36 15-15 36-15 21 0 36-15 15-15 15-36 0-21-15-36-15-15-36-15h-103z"></path>
  <path type="path" d="M819 1587q0-21 15-36 15-15 36-15h820q21 0 36 15 15 15 15 36 0 21-15 36-15 15-36 15h-820q-21 0-36-15-15-15-15-36z m0-1229q0-21 15-36 15-15 36-15h820q21 0 36 15 15 15 15 36 0 21-15 37-15 15-36 15h-820q-21 0-36-15-15-15-15-37z"></path>
  <path type="path" d="M309 265q14-28 40-44 26-16 57-16 29 0 53 14 21 12 31 31 9 17 6 33-3 18-23 32-40 32-80 46-114 38-162 118-16 27-22 56-2 10-4 18 0 3 0 7l0 2 0 1 0 0 0 0q26 0 51 0h-51q0 21 15 36 15 15 36 15h307q21 0 36-15 15-15 15-36 0-21-15-36-15-15-36-15h-229q31-34 92-54 57-19 111-63 48-39 59-93 10-51-15-99-24-45-70-72-48-28-105-29-60 0-111 32-51 32-78 85l-7 14q-9 19-3 39 7 20 26 30 19 9 39 3 20-7 30-26l7-14z"></path>
  <path type="path" d="M819 870q0-21 15-36 15-15 36-15h717q21 0 36 15 15 15 15 36 0 21-15 37-15 15-36 15h-717q-21 0-36-15-15-15-15-37z"></path>
  <path type="path" d="M819 1075q0-21 15-36 15-15 36-15h512q21 0 37 15 15 15 15 36 0 21-15 36-15 15-37 15h-512q-21 0-36-15-15-15-15-36z"></path>
  <path type="path" d="M599 988q15 15 15 36 0 21-15 36l-153 154q-15 15-36 15-21 0-37-15l-153-154q-15-15-15-36 0-21 15-36 15-15 36-15 21 0 36 15l66 66 0-286q0-21 15-36 15-15 37-15 21 0 36 15 15 15 15 36v286l66-66q15-15 36-15 21 0 36 15z"></path>
</svg>