<svg xmlns="http://www.w3.org/2000/svg" height="100%" width="100%" viewBox="0,0,2048,2048" focusable="false">
  <path type="path" d="M819 205q-85 0-145 60-60 60-60 145v1024q0 85 60 144 60 60 145 60h615q85 0 144-60 60-60 60-144v-1024q0-85-60-145-60-60-144-60h-615z m-102 205q0-42 30-73 30-30 72-30h615q42 0 72 30 30 30 30 73v1024q0 42-30 72-30 30-72 30h-615q-42 0-72-30-30-30-30-72v-1024z m-307 204q0-56 28-103 27-47 74-74v1048q0 106 75 181 75 75 181 75h638q-27 47-73 74-48 28-104 28h-461q-97 0-181-49-81-47-128-128-49-84-49-181v-871z" fill="currentColor"></path>
  <path type="path" d="M819 205q-85 0-145 60-60 60-60 145v1024q0 85 60 144 60 60 145 60h615q85 0 144-60 60-60 60-144v-1024q0-85-60-145-60-60-144-60h-615z m-102 205q0-42 30-73 30-30 72-30h615q42 0 72 30 30 30 30 73v1024q0 42-30 72-30 30-72 30h-615q-42 0-72-30-30-30-30-72v-1024z m-307 204q0-56 28-103 27-47 74-74v1048q0 106 75 181 75 75 181 75h638q-27 47-73 74-48 28-104 28h-461q-97 0-181-49-81-47-128-128-49-84-49-181v-871z" fill="currentColor"></path>
</svg>