<svg xmlns="http://www.w3.org/2000/svg" height="100%" width="100%" viewBox="0,0,2048,2048" focusable="false">
  <path type="path" d="M535 213q18-12 39-7 21 4 32 22l676 1041q70-40 152-40 127 0 217 90 90 90 90 217 0 127-90 217-90 90-217 90-127 0-218-90-90-90-90-217 0-115 76-202l-178-274-178 274q76 87 76 202 0 127-90 217-90 90-218 90-127 0-217-90-90-90-90-217 0-127 90-217 90-90 217-90 81 0 152 40l197-303-443-682q-12-18-7-39 4-21 22-32z m79 1528q85 0 145-60 60-60 60-145 0-85-60-145-60-60-145-60-85 0-144 60-60 60-60 145 0 85 60 145 60 60 144 60z m1024-205q0-85-60-145-60-60-144-60-85 0-145 60-60 60-60 145 0 85 60 145 60 60 145 60 85 0 144-60 60-60 60-145z m-553-758l61 94 382-588q12-18 7-39-4-21-22-32-18-12-39-7-21 4-32 22l-357 550z" fill="currentColor"></path>
  <path type="path" d="M535 213q18-12 39-7 21 4 32 22l676 1041q-45 26-80 65l-178-274-178 274q-34-39-80-65l197-303-443-682q-12-18-7-39 4-21 22-32z m550 565l61 94 382-588q12-18 7-39-4-21-22-32-18-12-39-7-21 4-32 22l-357 550z" fill="currentColor"></path>
  <path type="path" d="M614 1843q127 0 218-90 90-90 90-217 0-127-90-217-90-90-218-90-127 0-217 90-90 90-90 217 0 127 90 217 90 90 217 90z m0-102q-85 0-144-60-60-60-60-145 0-85 60-145 60-60 144-60 85 0 145 60 60 60 60 145 0 85-60 145-60 60-145 60z" fill="currentColor"></path>
  <path type="path" d="M1434 1843q127 0 217-90 90-90 90-217 0-127-90-217-90-90-217-90-127 0-218 90-90 90-90 217 0 127 90 217 90 90 218 90z m0-102q-85 0-145-60-60-60-60-145 0-85 60-145 60-60 145-60 85 0 144 60 60 60 60 145 0 85-60 145-60 60-144 60z" fill="currentColor"></path>
</svg>