<svg xmlns="http://www.w3.org/2000/svg" height="100%" width="100%" viewBox="0,0,2048,2048" focusable="false">
  <path type="path" d="M1759 257q14 3 24 15 9 12 9 27v682q0 18-13 31-12 12-30 12-18 0-30-12-12-12-12-31v-556q-51 46-117 69-52 18-97 18-18 0-30-12-12-12-12-31 0-18 12-30 12-12 30-12 49 0 104-30 75-40 114-117 7-13 20-20 13-6 28-3z m-1119 426q31 0 40 29l342 1024q6 17-3 32-8 16-24 22-17 6-33-3-16-8-21-24l-104-312h-394l-104 312q-6 17-21 24-16 8-33 3-17-6-25-22-8-16-2-32l342-1024q10-29 40-29z m-168 682h336l-168-505-168 505z m765-682q18 0 30 12 12 12 13 30v559q88-90 213-89 124 0 212 87 87 87 87 211 0 124-87 212-87 87-212 87-125 0-213-90v47q0 18-13 31-12 12-30 12-18 0-30-12-12-12-12-31v-1024q0-18 12-30 12-12 30-12z m43 810q0 88 62 151 62 62 151 63 88 0 151-63 62-62 63-151 0-88-63-151-62-62-151-62-88 0-151 62-62 62-62 151z" fill="none"></path>
  <path type="path" d="M1759 257q14 3 24 15 9 12 9 27v682q0 18-12 31-12 12-31 12-18 0-30-12-12-12-12-31v-556q-51 46-117 69-52 18-97 18-18 0-30-12-12-12-12-31 0-18 12-30 12-12 30-12 49 0 104-30 75-40 114-117 7-13 20-20 13-6 28-3z" fill="currentColor" stroke-width="48" stroke="currentColor"></path>
  <path type="path" d="M640 683q31 0 40 29l342 1024q6 17-3 32-8 16-24 22-17 6-33-3-16-8-21-24l-104-312h-394l-104 312q-6 17-21 24-16 8-33 3-17-6-25-22-8-16-2-32l342-1024q10-29 40-29z m-168 682h336l-168-505-168 505z m765-682q18 0 30 12 12 12 13 30v559q88-90 213-89 124 0 212 87 87 87 87 211 0 124-87 212-87 87-212 87-125 0-213-90v47q0 18-13 31-12 12-30 12-18 0-30-12-12-12-12-31v-1024q0-18 12-30 12-12 30-12z m43 810q0 88 62 151 62 62 151 63 88 0 151-63 62-62 63-151 0-88-63-151-62-62-151-62-88 0-151 62-62 62-62 151z" fill="currentColor" stroke-width="48" stroke="currentColor"></path>
</svg>