<svg xmlns="http://www.w3.org/2000/svg" height="100%" width="100%" viewBox="0,0,2048,2048" focusable="false">
  <path type="path" d="M299 171q18 0 30 12 12 12 12 30v427q0 18 13 30 12 12 30 13h1280q18 0 30-13 12-12 13-30v-427q0-18 12-30 12-12 30-12 18 0 31 12 12 12 12 30v427q0 53-37 91-37 37-91 37h-1280q-53 0-91-37-37-37-37-91v-427q0-18 12-30 12-12 31-12z m0 1621q-18 0-31-12-12-12-12-31l0-426q0-53 37-91 37-37 91-37l1280 0q53 0 91 37 37 37 37 91v426q0 18-12 31-12 12-31 12-18 0-30-12-12-12-12-31v-426q0-18-13-31-12-12-30-12l-1280 0q-18 0-30 12-12 12-13 31l0 426q0 18-12 31-12 12-30 12z m-128-811q0-18 12-30 12-12 30-12h86q18 0 30 12 12 12 12 30 0 18-12 31-12 12-30 12h-86q-18 0-30-12-12-12-12-31z m256 0q0-18 12-30 12-12 30-12h86q18 0 30 12 12 12 12 30 0 18-12 31-12 12-30 12h-86q-18 0-30-12-12-12-12-31z m256 0q0-18 12-30 12-12 30-12h86q18 0 30 12 12 12 12 30 0 18-12 31-12 12-30 12h-86q-18 0-30-12-12-12-12-31z m256 0q0-18 12-30 12-12 30-12h86q18 0 30 12 12 12 12 30 0 18-12 31-12 12-30 12h-86q-18 0-30-12-12-12-12-31z m256 0q0-18 12-30 12-12 30-12h86q18 0 30 12 12 12 12 30 0 18-12 31-12 12-30 12h-86q-18 0-30-12-12-12-12-31z m256 0q0-18 12-30 12-12 30-12h86q18 0 30 12 12 12 12 30 0 18-12 31-12 12-30 12h-86q-18 0-30-12-12-12-12-31z m256 0q0-18 12-30 12-12 30-12h86q18 0 30 12 12 12 12 30 0 18-12 31-12 12-30 12h-86q-18 0-30-12-12-12-12-31z" fill="none" stroke-width="40" stroke="currentColor"></path>
  <path type="path" d="M299 171q18 0 30 12 12 12 12 30v427q0 18 13 30 12 12 30 13h1280q18 0 30-13 12-12 13-30v-427q0-18 12-30 12-12 30-12 18 0 31 12 12 12 12 30v427q0 53-37 91-37 37-91 37h-1280q-53 0-91-37-37-37-37-91v-427q0-18 12-30 12-12 31-12z" fill="currentColor" stroke-width="40" stroke="currentColor"></path>
  <path type="path" d="M299 1792q-18 0-31-12-12-12-12-31l0-426q0-53 37-91 37-37 91-37l1280 0q53 0 91 37 37 37 37 91l0 426q0 18-12 31-12 12-31 12-18 0-30-12-12-12-12-31l0-426q0-18-13-31-12-12-30-12l-1280 0q-18 0-30 12-12 12-13 31l0 426q0 18-12 31-12 12-30 12z" fill="currentColor" stroke-width="40" stroke="currentColor"></path>
  <path type="path" d="M171 981q0-18 12-30 12-12 30-12h86q18 0 30 12 12 12 12 30 0 18-12 31-12 12-30 12h-86q-18 0-30-12-12-12-12-31z m256 0q0-18 12-30 12-12 30-12h86q18 0 30 12 12 12 12 30 0 18-12 31-12 12-30 12h-86q-18 0-30-12-12-12-12-31z m256 0q0-18 12-30 12-12 30-12h86q18 0 30 12 12 12 12 30 0 18-12 31-12 12-30 12h-86q-18 0-30-12-12-12-12-31z m256 0q0-18 12-30 12-12 30-12h86q18 0 30 12 12 12 12 30 0 18-12 31-12 12-30 12h-86q-18 0-30-12-12-12-12-31z m256 0q0-18 12-30 12-12 30-12h86q18 0 30 12 12 12 12 30 0 18-12 31-12 12-30 12h-86q-18 0-30-12-12-12-12-31z m256 0q0-18 12-30 12-12 30-12h86q18 0 30 12 12 12 12 30 0 18-12 31-12 12-30 12h-86q-18 0-30-12-12-12-12-31z m256 0q0-18 12-30 12-12 30-12h86q18 0 30 12 12 12 12 30 0 18-12 31-12 12-30 12h-86q-18 0-30-12-12-12-12-31z" fill="currentColor" stroke-width="40" stroke="currentColor"></path>
</svg>