<svg xmlns="http://www.w3.org/2000/svg" height="100%" width="100%" viewBox="0,0,2048,2048" focusable="false">
  <path type="path" class="OfficeIconColors_HighContrast" d="M1759 300q-58-61-138-84-78-22-157-2-81 20-141 80l-960 960q-51 51-67 123l-90 404q-6 27 14 47 20 20 47 14l402-89q73-16 127-70l958-958q88-88 89-212 2-124-84-213z m-363 67q60-60 145-60 85 1 144 63 57 60 56 142-1 82-59 141l-69 68-286-286 69-68z m-142 141l286 286-817 817q-32 32-76 42l-323 72 72-326q9-42 40-72l818-819z" fill="none"></path>
  <path type="path" class="OfficeIconColors_m22" d="M1759 300q-58-61-138-84-78-22-157-2-81 20-141 80l-960 960q-51 51-67 123l-90 404q-6 27 14 47 20 20 47 14l402-89q73-16 127-70l958-958q88-88 89-212 2-124-84-213z m-363 67q60-60 145-60 85 1 144 63 57 60 56 142-1 82-59 141l-69 68-286-286 69-68z m-142 141l286 286-817 817q-32 32-76 42l-323 72 72-326q9-42 40-72l818-819z" fill="currentColor"></path>
</svg>