<svg xmlns="http://www.w3.org/2000/svg" height="100%" width="100%" viewBox="0,0,2048,2048" fill="currentColor" focusable="false">
  <path type="path" d="M512 154q0-19-12-34-12-14-31-17-19-3-35 7-16 10-22 27l-15 45q-29 88-113 131-19 9-25 29-7 20 2 39 9 19 30 26 20 7 39-3 44-22 80-56v215q0 21 15 36 15 15 36 15 21 0 36-15 15-15 15-36v-409z m-203 725q14-28 40-44 26-16 57-16 29 0 53 14 21 12 31 32 9 17 6 32-3 18-23 33-40 32-80 45-114 38-162 119-16 27-22 55-2 10-4 19 0 3 0 6l0 2 0 1 0 0 0 0q26 0 51 1h-51q0 21 15 36 15 15 36 15h307q21 0 36-15 15-15 15-36 0-21-15-37-15-15-36-15h-229q31-34 92-53 57-19 111-63 48-39 59-93 10-51-15-100-24-45-70-72-48-28-105-28-60 0-111 31-51 32-78 86l-7 14q-9 19-3 39 7 20 26 29 19 9 39 3 20-7 30-26l7-14z m21 574q-22 15-23 31 0 21-15 36-15 15-36 15-21 0-36-15-15-15-15-36 0-70 67-116 58-39 138-39 79 0 137 39 68 46 67 116 0 58-53 103 53 44 53 102 0 67-66 113-59 42-138 42-79 0-138-39-68-46-67-116 0-21 15-36 15-15 36-15 21 0 36 15 15 15 15 36 0 16 23 31 32 22 80 21 46 0 79-23 23-16 23-29 0-13-23-28-33-22-79-23-21 0-37-15-15-15-15-36 0-21 15-36 15-15 37-15 46 0 79-23 23-16 23-29 0-16-22-31-32-22-80-21-48 0-80 21z m438-1146q-21 0-36 15-15 15-15 36 0 21 15 37 15 15 36 15h922q21 0 36-15 15-15 15-37 0-21-15-36-15-15-36-15h-922z m0 717h808l27-27q5-5 10-9 48-38 108-56-14-11-31-10h-922q-21 0-36 15-15 15-15 36 0 21 15 36 15 15 36 15z m219 614h-219q-21 0-36-15-15-15-15-36 0-21 15-36 15-15 36-15h296l-49 48q-20 20-26 48l-2 6z m689-565l-110 110 220 221 111-110q8-9 15-19 17-24 26-50 12-36 5-71-9-43-46-81-69-69-152-41-41 14-69 41 0 0 0 0z m-588 588l-63 252q-4 14 7 25 10 10 24 7l252-63 405-405-221-220-404 404z"></path>
  <path type="path" d="M1088 1661l-63 252q-4 14 7 25 10 10 24 7l252-63 405-405-221-220-404 404z m588-588l-110 110 220 221 111-110q0 0 0 0 8-9 15-19 17-24 26-50 12-36 5-71-9-43-46-81-69-69-152-41-41 14-69 41 0 0 0 0z"></path>
  <path type="path" d="M717 358q0-21 15-36 15-15 36-15h922q21 0 36 15 15 15 15 36 0 21-15 37-15 15-36 15h-922q-21 0-36-15-15-15-15-37z m859 666h-808q-21 0-36-15-15-15-15-36 0-21 15-36 15-15 36-15h922q18 0 31 10-60 17-108 56-5 4-10 9l-27 27z m-589 614h-219q-21 0-36-15-15-15-15-36 0-21 15-36 15-15 36-15h296l-49 48q-20 20-26 48l-2 6z"></path>
  <path type="path" d="M512 154q0-19-12-34-12-14-31-17-19-3-35 7-16 10-22 27l-15 45q-29 88-113 131-19 9-25 29-7 20 2 39 9 19 30 26 20 7 39-3 44-22 80-56v215q0 21 15 36 15 15 36 15 21 0 36-15 15-15 15-36v-409z m-203 725q14-28 40-44 26-16 57-16 29 0 53 14 21 12 31 32 9 17 6 32-3 18-23 33-40 32-80 45-114 38-162 119-16 27-22 55-2 10-4 19 0 3 0 6l0 2 0 1 0 0 0 0q26 0 51 1h-51q0 21 15 36 15 15 36 15h307q21 0 36-15 15-15 15-36 0-21-15-37-15-15-36-15h-229q31-34 92-53 57-19 111-63 48-39 59-93 10-51-15-100-24-45-70-72-48-28-105-28-60 0-111 31-51 32-78 86l-7 14q-9 19-3 39 7 20 26 29 19 9 39 3 20-7 30-26l7-14z m-2 605q0-16 23-31 32-22 80-21 48 0 80 21 22 15 22 31 0 13-23 29-33 23-79 23-21 0-37 15-15 15-15 36 0 21 15 36 15 15 37 15 47 0 79 23 23 15 23 28 0 13-23 29-33 23-79 23-48 0-80-21-22-15-23-31 0-21-15-36-15-15-36-15-21 0-36 15-15 15-15 36 0 70 67 116 58 39 138 39 78 0 138-42 67-47 66-113 0-58-53-102 53-45 53-103 0-70-67-116-58-39-137-39-79 0-138 39-68 46-67 116 0 21 15 36 15 15 36 15 21 0 36-15 15-15 15-36z"></path>
</svg>