<svg xmlns="http://www.w3.org/2000/svg" height="100%" width="100%" viewBox="0,0,2048,2048" focusable="false">
  <path type="path" d="M469 205q19 3 31 18 12 14 12 33v613q0 21-15 37-15 15-36 15-21 0-36-15-15-15-15-37v-444q-60 59-138 84-20 7-39-3-19-9-26-30-7-20 3-39 9-19 30-25 80-27 134-103 17-24 30-50 4-8 7-15 1-2 1-4l0-1q6-18 22-27 16-10 35-7z m498 102q-19 0-32 15-13 15-13 36 0 21 13 37 13 15 32 15h728q19 0 32-15 13-15 14-37 0-21-14-36-13-15-32-15h-728z m0 615q-19 0-32 15-13 15-13 36 0 21 13 36 13 15 32 15h728q19 0 32-15 13-15 14-36 0-21-14-36-13-15-32-15h-728z m0 614h728q19 0 32 15 13 15 14 36 0 21-14 36-13 15-32 15h-728q-19 0-32-15-13-15-13-36 0-21 13-36 13-15 32-15z m-455 132l0-490q0-21-15-37-15-15-36-15-21 0-36 15-15 15-15 37l0 490-118-117q-15-15-36-15-21 0-36 15-15 15-15 36 0 21 15 36l205 205q15 15 36 15 21 0 36-15l205-205q15-15 15-36 0-21-15-36-15-15-36-15-21 0-37 15l-117 117z"></path>
  <path type="path" d="M922 358q0-21 13-36 13-15 32-15h728q19 0 32 15 13 15 14 36 0 21-14 37-13 15-32 15h-728q-19 0-32-15-13-15-13-37z m0 615q0-21 13-36 13-15 32-15h728q19 0 32 15 13 15 14 36 0 21-14 36-13 15-32 15h-728q-19 0-32-15-13-15-13-36z m0 614q0-21 13-36 13-15 32-15h728q19 0 32 15 13 15 14 36 0 21-14 36-13 15-32 15h-728q-19 0-32-15-13-15-13-36z"></path>
  <path type="path" d="M512 1668l0-490q0-21-15-37-15-15-36-15-21 0-36 15-15 15-15 37l0 490-118-117q-15-15-36-15-21 0-36 15-15 15-15 36 0 21 15 36l205 205q15 15 36 15 21 0 36-15l205-205q15-15 15-36 0-21-15-36-15-15-36-15-21 0-37 15l-117 117z"></path>
  <path type="path" d="M512 256q0-19-12-33-12-14-31-18-19-3-35 7-16 10-22 27l0 1q-1 2-1 4-3 7-7 15-12 26-30 50-54 76-134 103-20 7-30 25-9 19-3 39 7 20 26 30 19 9 39 3 77-26 138-84v444q0 21 15 37 15 15 36 15 21 0 36-15 15-15 15-37v-613z"></path>
</svg>