<svg xmlns="http://www.w3.org/2000/svg" height="100%" width="100%" viewBox="0,0,2048,2048" focusable="false">
  <path type="path" d="M922 768q0-21-15-36-15-15-37-15-21 0-36 15-15 15-15 36v717q0 21 15 36 15 15 36 15 21 0 37-15 15-15 15-36v-717z m307 0q0-21-15-36-15-15-36-15-21 0-37 15-15 15-15 36v717q0 21 15 36 15 15 37 15 21 0 36-15 15-15 15-36v-717z m-205-666q-82 0-154 44-69 42-112 112-43 72-45 152h-457q-21 0-36 15-15 15-15 36 0 21 15 36 15 15 36 15h108l122 1059q13 116 101 194 87 78 204 78h466q117 0 204-78 87-78 101-194l122-1059h108q21 0 36-15 15-15 15-36 0-21-15-36-15-15-36-15h-457q-2-80-45-152-42-70-112-112-72-44-154-44z m0 103q82 0 144 62 61 61 65 143h-418q3-81 65-143 62-62 144-62z m-233 1536q-78 0-136-52-58-52-67-130l-121-1047h1114l-121 1047q-9 78-67 130-58 52-136 52h-466z" fill="none"></path>
  <path type="path" d="M870 717q21 0 37 15 15 15 15 36v717q0 21-15 36-15 15-37 15-21 0-36-15-15-15-15-36v-717q0-21 15-36 15-15 36-15z m308 0q21 0 36 15 15 15 15 36v717q0 21-15 36-15 15-36 15-21 0-37-15-15-15-15-36v-717q0-21 15-36 15-15 37-15z" fill="currentColor"></path>
  <path type="path" d="M713 410q2-80 45-152 42-70 112-112 72-44 154-44 82 0 154 44 69 42 112 112 43 72 45 152h457q21 0 36 15 15 15 15 36 0 21-15 36-15 15-36 15h-108l-122 1059q-13 116-101 194-87 78-204 78h-466q-117 0-204-78-87-78-101-194l-122-1059h-108q-21 0-36-15-15-15-15-36 0-21 15-36 15-15 36-15h457z m102 0h418q-3-81-65-143-62-62-144-62-82 0-144 62-61 61-65 143z m-227 1149q9 78 67 130 58 52 136 52h466q78 0 136-52 58-52 67-130l121-1047h-1114l121 1047z" fill="currentColor"></path>
</svg>